<svg width="13" height="14" viewBox="0 0 13 14" fill="none" xmlns="http://www.w3.org/2000/svg">
<path fill-rule="evenodd" clip-rule="evenodd" d="M1.8 0.942322H1.75C1.521 0.942322 1.324 0.942322 1.15 0.983322C0.880636 1.04769 0.63435 1.18537 0.438431 1.38111C0.242511 1.57685 0.104608 1.82302 0.04 2.09232C-3.72529e-08 2.26632 0 2.46232 0 2.69232V5.19232C0 5.42132 7.45058e-09 5.61832 0.041 5.79232C0.105365 6.06169 0.243046 6.30797 0.438789 6.50389C0.634532 6.69981 0.880694 6.83771 1.15 6.90232C1.324 6.94232 1.52 6.94232 1.75 6.94232H4.25C4.479 6.94232 4.676 6.94232 4.85 6.90132C5.11936 6.83696 5.36565 6.69928 5.56157 6.50353C5.75749 6.30779 5.89539 6.06163 5.96 5.79232C6 5.61832 6 5.42232 6 5.19232V2.69232C6 2.46332 6 2.26632 5.959 2.09232C5.89464 1.82296 5.75695 1.57667 5.56121 1.38075C5.36547 1.18483 5.11931 1.04693 4.85 0.982322C4.676 0.942322 4.48 0.942322 4.25 0.942322H1.8ZM1.383 1.95632C1.426 1.94632 1.493 1.94232 1.8 1.94232H4.2C4.508 1.94232 4.574 1.94532 4.617 1.95632C4.70683 1.9778 4.78895 2.02375 4.85426 2.08906C4.91957 2.15437 4.96552 2.23649 4.987 2.32632C4.997 2.36832 5 2.43432 5 2.74232V5.14232C5 5.45032 4.997 5.51632 4.986 5.55932C4.96452 5.64915 4.91857 5.73128 4.85326 5.79659C4.78795 5.8619 4.70583 5.90784 4.616 5.92932C4.575 5.93832 4.509 5.94232 4.2 5.94232H1.8C1.492 5.94232 1.426 5.93932 1.383 5.92832C1.29317 5.90684 1.21105 5.8609 1.14574 5.79559C1.08043 5.73028 1.03448 5.64815 1.013 5.55832C1.004 5.51732 1 5.45132 1 5.14232V2.74232C1 2.43432 1.003 2.36832 1.014 2.32532C1.03548 2.23549 1.08143 2.15337 1.14674 2.08806C1.21205 2.02275 1.29417 1.9768 1.384 1.95532L1.383 1.95632ZM8.8 0.942322H8.75C8.521 0.942322 8.324 0.942322 8.15 0.983322C7.88064 1.04769 7.63435 1.18537 7.43843 1.38111C7.24251 1.57685 7.10461 1.82302 7.04 2.09232C7 2.26632 7 2.46232 7 2.69232V5.19232C7 5.42132 7 5.61832 7.041 5.79232C7.10537 6.06169 7.24305 6.30797 7.43879 6.50389C7.63453 6.69981 7.88069 6.83771 8.15 6.90232C8.324 6.94232 8.52 6.94232 8.75 6.94232H11.25C11.479 6.94232 11.676 6.94232 11.85 6.90132C12.1194 6.83696 12.3657 6.69928 12.5616 6.50353C12.7575 6.30779 12.8954 6.06163 12.96 5.79232C13 5.61832 13 5.42232 13 5.19232V2.69232C13 2.46332 13 2.26632 12.959 2.09232C12.8946 1.82296 12.757 1.57667 12.5612 1.38075C12.3655 1.18483 12.1193 1.04693 11.85 0.982322C11.676 0.942322 11.48 0.942322 11.25 0.942322H8.8ZM8.383 1.95632C8.426 1.94632 8.493 1.94232 8.8 1.94232H11.2C11.508 1.94232 11.574 1.94532 11.617 1.95632C11.7068 1.9778 11.789 2.02375 11.8543 2.08906C11.9196 2.15437 11.9655 2.23649 11.987 2.32632C11.997 2.36832 12 2.43432 12 2.74232V5.14232C12 5.45032 11.996 5.51632 11.986 5.55932C11.9645 5.64915 11.9186 5.73128 11.8533 5.79659C11.788 5.8619 11.7058 5.90784 11.616 5.92932C11.574 5.93932 11.508 5.94232 11.2 5.94232H8.8C8.492 5.94232 8.426 5.93932 8.383 5.92832C8.29317 5.90684 8.21105 5.8609 8.14574 5.79559C8.08043 5.73028 8.03448 5.64815 8.013 5.55832C8.004 5.51732 8 5.45132 8 5.14232V2.74232C8 2.43432 8.003 2.36832 8.014 2.32532C8.03548 2.23549 8.08142 2.15337 8.14674 2.08806C8.21205 2.02275 8.29417 1.9768 8.384 1.95532L8.383 1.95632ZM1.75 7.94232H4.25C4.479 7.94232 4.676 7.94232 4.85 7.98332C5.11936 8.04769 5.36565 8.18537 5.56157 8.38111C5.75749 8.57685 5.89539 8.82302 5.96 9.09232C6 9.26632 6 9.46232 6 9.69232V12.1923C6 12.4213 6 12.6183 5.959 12.7923C5.89464 13.0617 5.75695 13.308 5.56121 13.5039C5.36547 13.6998 5.11931 13.8377 4.85 13.9023C4.676 13.9423 4.48 13.9423 4.25 13.9423H1.75C1.521 13.9423 1.324 13.9423 1.15 13.9013C0.880636 13.837 0.63435 13.6993 0.438431 13.5035C0.242511 13.3078 0.104608 13.0616 0.04 12.7923C-3.72529e-08 12.6183 0 12.4223 0 12.1923V9.69232C0 9.46332 7.45058e-09 9.26632 0.041 9.09232C0.105365 8.82296 0.243046 8.57667 0.438789 8.38075C0.634532 8.18483 0.880694 8.04693 1.15 7.98232C1.324 7.94232 1.52 7.94232 1.75 7.94232ZM1.8 8.94232C1.492 8.94232 1.426 8.94532 1.383 8.95632C1.29317 8.9778 1.21105 9.02375 1.14574 9.08906C1.08043 9.15437 1.03448 9.23649 1.013 9.32632C1.004 9.36732 1 9.43332 1 9.74232V12.1423C1 12.4503 1.003 12.5163 1.014 12.5593C1.03548 12.6492 1.08143 12.7313 1.14674 12.7966C1.21205 12.8619 1.29417 12.9078 1.384 12.9293C1.426 12.9393 1.492 12.9423 1.8 12.9423H4.2C4.508 12.9423 4.574 12.9383 4.617 12.9283C4.70683 12.9068 4.78895 12.8609 4.85426 12.7956C4.91957 12.7303 4.96552 12.6482 4.987 12.5583C4.997 12.5163 5 12.4503 5 12.1423V9.74232C5 9.43432 4.997 9.36832 4.986 9.32532C4.96452 9.23549 4.91857 9.15337 4.85326 9.08806C4.78795 9.02275 4.70583 8.9768 4.616 8.95532C4.575 8.94632 4.509 8.94232 4.2 8.94232H1.8ZM8.8 7.94232H8.75C8.521 7.94232 8.324 7.94232 8.15 7.98332C7.88064 8.04769 7.63435 8.18537 7.43843 8.38111C7.24251 8.57685 7.10461 8.82302 7.04 9.09232C7 9.26632 7 9.46232 7 9.69232V12.1923C7 12.4213 7 12.6183 7.041 12.7923C7.10537 13.0617 7.24305 13.308 7.43879 13.5039C7.63453 13.6998 7.88069 13.8377 8.15 13.9023C8.324 13.9433 8.521 13.9433 8.75 13.9433H11.25C11.479 13.9433 11.676 13.9433 11.85 13.9023C12.1192 13.8378 12.3653 13.7 12.561 13.5043C12.7567 13.3086 12.8945 13.0625 12.959 12.7933C13 12.6193 13 12.4223 13 12.1933V9.69232C13 9.46332 13 9.26632 12.959 9.09232C12.8946 8.82296 12.757 8.57667 12.5612 8.38075C12.3655 8.18483 12.1193 8.04693 11.85 7.98232C11.676 7.94232 11.48 7.94232 11.25 7.94232H8.8ZM8.383 8.95632C8.426 8.94632 8.493 8.94232 8.8 8.94232H11.2C11.508 8.94232 11.574 8.94532 11.617 8.95632C11.7068 8.9778 11.789 9.02375 11.8543 9.08906C11.9196 9.15437 11.9655 9.23649 11.987 9.32632C11.997 9.36832 12 9.43432 12 9.74232V12.1423C12 12.4503 11.996 12.5163 11.986 12.5593C11.9645 12.6492 11.9186 12.7313 11.8533 12.7966C11.788 12.8619 11.7058 12.9078 11.616 12.9293C11.574 12.9393 11.508 12.9423 11.2 12.9423H8.8C8.492 12.9423 8.426 12.9383 8.383 12.9283C8.29317 12.9068 8.21105 12.8609 8.14574 12.7956C8.08043 12.7303 8.03448 12.6482 8.013 12.5583C8.004 12.5173 8 12.4513 8 12.1423V9.74232C8 9.43432 8.003 9.36832 8.014 9.32532C8.03548 9.23549 8.08142 9.15337 8.14674 9.08806C8.21205 9.02275 8.29417 8.9768 8.384 8.95532L8.383 8.95632Z" fill="#252525"/>
</svg>
