<svg width="14" height="14" viewBox="0 0 14 14" fill="none" xmlns="http://www.w3.org/2000/svg">
<path d="M7 1C7.13261 1 7.25975 1.05272 7.35352 1.14648L7.41602 1.22266C7.47037 1.30419 7.5 1.40056 7.5 1.5V6.5H12.5C12.6326 6.5 12.7597 6.55272 12.8535 6.64648C12.9473 6.74025 13 6.86739 13 7C13 7.13261 12.9473 7.25975 12.8535 7.35352C12.7597 7.44728 12.6326 7.5 12.5 7.5H7.5V12.5C7.5 12.6326 7.44728 12.7597 7.35352 12.8535C7.25975 12.9473 7.13261 13 7 13C6.86739 13 6.74025 12.9473 6.64648 12.8535C6.55272 12.7597 6.5 12.6326 6.5 12.5V7.5H1.5C1.40056 7.5 1.30419 7.47037 1.22266 7.41602L1.14648 7.35352C1.05272 7.25975 1 7.13261 1 7C1 6.86739 1.05272 6.74025 1.14648 6.64648L1.22266 6.58398C1.30419 6.52963 1.40056 6.5 1.5 6.5H6.5V1.5C6.5 1.36739 6.55272 1.24025 6.64648 1.14648L6.72266 1.08398C6.80419 1.02963 6.90056 1 7 1Z" fill="white" stroke="white" stroke-width="0.5"/>
</svg>
