<svg width="15" height="13" viewBox="0 0 15 13" fill="none" xmlns="http://www.w3.org/2000/svg">
<path d="M2.625 3.39099C2.625 2.83072 2.83512 2.2934 3.20913 1.89723C3.58313 1.50106 4.09039 1.27849 4.61932 1.27849C5.14825 1.27849 5.65551 1.50106 6.02952 1.89723C6.40352 2.2934 6.61364 2.83072 6.61364 3.39099C6.61364 3.95126 6.40352 4.48858 6.02952 4.88475C5.65551 5.28092 5.14825 5.50349 4.61932 5.50349C4.09039 5.50349 3.58313 5.28092 3.20913 4.88475C2.83512 4.48858 2.625 3.95126 2.625 3.39099ZM4.61932 0.3396C3.85532 0.3396 3.1226 0.661084 2.58237 1.23333C2.04214 1.80558 1.73864 2.58171 1.73864 3.39099C1.73864 4.20027 2.04214 4.9764 2.58237 5.54865C3.1226 6.12089 3.85532 6.44238 4.61932 6.44238C5.38333 6.44238 6.11604 6.12089 6.65627 5.54865C7.1965 4.9764 7.5 4.20027 7.5 3.39099C7.5 2.58171 7.1965 1.80558 6.65627 1.23333C6.11604 0.661084 5.38333 0.3396 4.61932 0.3396ZM9.66007 11.273C10.1369 11.4795 10.737 11.6063 11.4886 11.6063C13.1559 11.6063 14.0777 10.9791 14.5634 10.2599C14.8168 9.88249 14.9757 9.44316 15.0252 8.98301C15.0297 8.94026 15.0326 8.89736 15.0341 8.85438V8.7896C15.0341 8.60465 14.9997 8.42152 14.9329 8.25065C14.8661 8.07979 14.7681 7.92453 14.6447 7.79376C14.5212 7.66298 14.3747 7.55924 14.2133 7.48847C14.052 7.41769 13.8791 7.38127 13.7045 7.38127H9.60069C9.81341 7.65354 9.97296 7.97183 10.066 8.32015H13.7045C13.8221 8.32015 13.9348 8.36961 14.0179 8.45765C14.101 8.54569 14.1477 8.66509 14.1477 8.7896V8.8403L14.1433 8.88724C14.1094 9.18493 14.0058 9.46893 13.8419 9.71347C13.5521 10.1444 12.9228 10.6674 11.4886 10.6674C10.8398 10.6674 10.3559 10.5603 9.99334 10.4035C9.92066 10.6664 9.81519 10.9631 9.66007 11.273ZM-0.0340881 9.25904C-0.0340881 8.76103 0.152681 8.28341 0.485132 7.93125C0.817582 7.5791 1.26848 7.38127 1.73864 7.38127H7.5C7.97016 7.38127 8.42106 7.5791 8.75351 7.93125C9.08596 8.28341 9.27273 8.76103 9.27273 9.25904V9.33791C9.27273 9.3473 9.27273 9.3595 9.27096 9.37547C9.26017 9.56136 9.23498 9.74601 9.19562 9.92753C9.12028 10.273 8.97048 10.735 8.66823 11.1988C8.04689 12.1508 6.84675 13.0146 4.61932 13.0146C2.39189 13.0146 1.19175 12.1508 0.570412 11.1988C0.243188 10.6939 0.0391545 10.111 -0.0234518 9.50222C-0.0287483 9.44759 -0.0322958 9.39279 -0.0340881 9.33791V9.25904ZM0.852276 9.31538V9.33228L0.85848 9.4102C0.906507 9.86028 1.05808 10.291 1.29989 10.6646C1.73155 11.3255 2.63653 12.0757 4.61932 12.0757C6.60212 12.0757 7.50709 11.3255 7.93875 10.6646C8.18063 10.291 8.33221 9.8603 8.38016 9.4102C8.38307 9.38433 8.38484 9.35833 8.38548 9.33228L8.38637 9.31632V9.25904C8.38637 9.01003 8.29298 8.77122 8.12676 8.59515C7.96053 8.41907 7.73508 8.32015 7.5 8.32015H1.73864C1.50356 8.32015 1.27811 8.41907 1.11189 8.59515C0.94566 8.77122 0.852276 9.01003 0.852276 9.25904V9.31538ZM10.1591 4.09516C10.1591 3.72164 10.2992 3.36343 10.5485 3.09931C10.7978 2.8352 11.136 2.68682 11.4886 2.68682C11.8413 2.68682 12.1794 2.8352 12.4288 3.09931C12.6781 3.36343 12.8182 3.72164 12.8182 4.09516C12.8182 4.46867 12.6781 4.82688 12.4288 5.091C12.1794 5.35511 11.8413 5.50349 11.4886 5.50349C11.136 5.50349 10.7978 5.35511 10.5485 5.091C10.2992 4.82688 10.1591 4.46867 10.1591 4.09516ZM11.4886 1.74793C10.9009 1.74793 10.3373 1.99523 9.92176 2.43542C9.50619 2.87561 9.27273 3.47263 9.27273 4.09516C9.27273 4.71768 9.50619 5.3147 9.92176 5.75489C10.3373 6.19508 10.9009 6.44238 11.4886 6.44238C12.0763 6.44238 12.64 6.19508 13.0555 5.75489C13.4711 5.3147 13.7045 4.71768 13.7045 4.09516C13.7045 3.47263 13.4711 2.87561 13.0555 2.43542C12.64 1.99523 12.0763 1.74793 11.4886 1.74793Z" fill="#252525"/>
</svg>
