<svg width="13" height="14" viewBox="0 0 13 14" fill="none" xmlns="http://www.w3.org/2000/svg">
<g clip-path="url(#clip0_256_16250)">
<path d="M6.5 1.75482C6.17677 1.75482 5.86677 1.88323 5.63821 2.11179C5.40965 2.34035 5.28125 2.65034 5.28125 2.97357C5.28125 3.2968 5.40965 3.6068 5.63821 3.83536C5.86677 4.06392 6.17677 4.19232 6.5 4.19232C6.82323 4.19232 7.13323 4.06392 7.36179 3.83536C7.59035 3.6068 7.71875 3.2968 7.71875 2.97357C7.71875 2.65034 7.59035 2.34035 7.36179 2.11179C7.13323 1.88323 6.82323 1.75482 6.5 1.75482ZM4.46875 2.97357C4.46875 2.43485 4.68276 1.91819 5.06369 1.53726C5.44462 1.15633 5.96128 0.942322 6.5 0.942322C7.03872 0.942322 7.55538 1.15633 7.93631 1.53726C8.31724 1.91819 8.53125 2.43485 8.53125 2.97357C8.53125 3.51229 8.31724 4.02895 7.93631 4.40988C7.55538 4.79082 7.03872 5.00482 6.5 5.00482C5.96128 5.00482 5.44462 4.79082 5.06369 4.40988C4.68276 4.02895 4.46875 3.51229 4.46875 2.97357ZM10.9688 2.56732C10.7533 2.56732 10.5466 2.65292 10.3942 2.8053C10.2419 2.95767 10.1562 3.16433 10.1562 3.37982C10.1562 3.59531 10.2419 3.80197 10.3942 3.95435C10.5466 4.10672 10.7533 4.19232 10.9688 4.19232C11.1842 4.19232 11.3909 4.10672 11.5433 3.95435C11.6956 3.80197 11.7812 3.59531 11.7812 3.37982C11.7812 3.16433 11.6956 2.95767 11.5433 2.8053C11.3909 2.65292 11.1842 2.56732 10.9688 2.56732ZM9.34375 3.37982C9.34375 2.94884 9.51496 2.53552 9.8197 2.23077C10.1244 1.92603 10.5378 1.75482 10.9688 1.75482C11.3997 1.75482 11.8131 1.92603 12.1178 2.23077C12.4225 2.53552 12.5938 2.94884 12.5938 3.37982C12.5938 3.8108 12.4225 4.22412 12.1178 4.52887C11.8131 4.83362 11.3997 5.00482 10.9688 5.00482C10.5378 5.00482 10.1244 4.83362 9.8197 4.52887C9.51496 4.22412 9.34375 3.8108 9.34375 3.37982ZM1.21875 3.37982C1.21875 3.16433 1.30435 2.95767 1.45673 2.8053C1.6091 2.65292 1.81576 2.56732 2.03125 2.56732C2.24674 2.56732 2.4534 2.65292 2.60577 2.8053C2.75815 2.95767 2.84375 3.16433 2.84375 3.37982C2.84375 3.59531 2.75815 3.80197 2.60577 3.95435C2.4534 4.10672 2.24674 4.19232 2.03125 4.19232C1.81576 4.19232 1.6091 4.10672 1.45673 3.95435C1.30435 3.80197 1.21875 3.59531 1.21875 3.37982ZM2.03125 1.75482C1.60027 1.75482 1.18695 1.92603 0.882201 2.23077C0.577455 2.53552 0.40625 2.94884 0.40625 3.37982C0.40625 3.8108 0.577455 4.22412 0.882201 4.52887C1.18695 4.83362 1.60027 5.00482 2.03125 5.00482C2.46223 5.00482 2.87555 4.83362 3.1803 4.52887C3.48505 4.22412 3.65625 3.8108 3.65625 3.37982C3.65625 2.94884 3.48505 2.53552 3.1803 2.23077C2.87555 1.92603 2.46223 1.75482 2.03125 1.75482ZM2.51875 11.5032C2.29875 11.5142 2.07881 11.4804 1.87229 11.4038C1.66577 11.3272 1.47698 11.2093 1.3174 11.0575C1.15781 10.9057 1.03076 10.723 0.943969 10.5205C0.857174 10.3181 0.812445 10.1001 0.8125 9.87982V6.83295C0.8125 6.77907 0.833901 6.72741 0.871994 6.68932C0.910087 6.65122 0.961753 6.62982 1.01562 6.62982H2.44887C2.48137 6.33163 2.587 6.05457 2.74544 5.81732H1.01562C0.455 5.81732 1.44934e-08 6.27232 1.44934e-08 6.83295V9.87982C-3.7916e-05 10.2277 0.0743751 10.5715 0.218239 10.8882C0.362103 11.2049 0.572085 11.4871 0.834076 11.716C1.09607 11.9448 1.404 12.1149 1.73718 12.2148C2.07036 12.3148 2.42107 12.3422 2.76575 12.2954C2.65639 12.0405 2.57362 11.7751 2.51875 11.5032ZM10.2343 12.2954C10.5789 12.3422 10.9296 12.3148 11.2628 12.2148C11.596 12.1149 11.9039 11.9448 12.1659 11.716C12.4279 11.4871 12.6379 11.2049 12.7818 10.8882C12.9256 10.5715 13 10.2277 13 9.87982V6.83295C13 6.27232 12.545 5.81732 11.9844 5.81732H10.2546C10.4138 6.05457 10.5186 6.33163 10.5511 6.62982H11.9844C12.0382 6.62982 12.0899 6.65122 12.128 6.68932C12.1661 6.72741 12.1875 6.77907 12.1875 6.83295V9.87982C12.1876 10.1001 12.1428 10.3181 12.056 10.5205C11.9692 10.723 11.8422 10.9057 11.6826 11.0575C11.523 11.2093 11.3342 11.3272 11.1277 11.4038C10.9212 11.4804 10.7012 11.5142 10.4812 11.5032C10.4264 11.775 10.3436 12.0405 10.2343 12.2954ZM4.26562 5.81732C3.705 5.81732 3.25 6.27232 3.25 6.83295V10.6923C3.25 11.5543 3.59241 12.3809 4.2019 12.9904C4.8114 13.5999 5.63805 13.9423 6.5 13.9423C7.36195 13.9423 8.1886 13.5999 8.7981 12.9904C9.40759 12.3809 9.75 11.5543 9.75 10.6923V6.83295C9.75 6.27232 9.295 5.81732 8.73438 5.81732H4.26562ZM4.0625 6.83295C4.0625 6.77907 4.0839 6.72741 4.12199 6.68932C4.16009 6.65122 4.21175 6.62982 4.26562 6.62982H8.73438C8.78825 6.62982 8.83991 6.65122 8.87801 6.68932C8.9161 6.72741 8.9375 6.77907 8.9375 6.83295V10.6923C8.9375 11.3388 8.68069 11.9588 8.22357 12.4159C7.76645 12.873 7.14647 13.1298 6.5 13.1298C5.85353 13.1298 5.23355 12.873 4.77643 12.4159C4.31931 11.9588 4.0625 11.3388 4.0625 10.6923V6.83295Z" fill="#252525"/>
</g>
<defs>
<clipPath id="clip0_256_16250">
<rect width="13" height="13" fill="white" transform="translate(0 0.942322)"/>
</clipPath>
</defs>
</svg>
