<svg width="13" height="13" viewBox="0 0 13 13" fill="none" xmlns="http://www.w3.org/2000/svg">
<path d="M0.590942 10.9318C0.590942 10.1482 0.902224 9.39668 1.45631 8.8426C2.01039 8.28852 2.76189 7.97723 3.54549 7.97723H9.45458C10.2382 7.97723 10.9897 8.28852 11.5438 8.8426C12.0978 9.39668 12.4091 10.1482 12.4091 10.9318C12.4091 11.3236 12.2535 11.6993 11.9764 11.9764C11.6994 12.2534 11.3236 12.4091 10.9319 12.4091H2.06822C1.67642 12.4091 1.30067 12.2534 1.02363 11.9764C0.746583 11.6993 0.590942 11.3236 0.590942 10.9318Z" stroke="#252525" stroke-linejoin="round"/>
<path d="M6.50009 5.0227C7.7239 5.0227 8.716 4.0306 8.716 2.80679C8.716 1.58298 7.7239 0.590881 6.50009 0.590881C5.27628 0.590881 4.28418 1.58298 4.28418 2.80679C4.28418 4.0306 5.27628 5.0227 6.50009 5.0227Z" stroke="#252525"/>
</svg>
