<svg width="29" height="26" viewBox="0 0 29 26" fill="none" xmlns="http://www.w3.org/2000/svg">
<path d="M25.1989 16.9001L28.0576 15.8265V8.58236L25.1989 7.50876C23.3665 3.50911 19.269 0.722076 14.5044 0.722076C9.73985 0.722076 5.6424 3.50911 3.81002 7.50876L0.951263 8.58236V15.8255L3.81002 16.8991C4.48119 18.3641 5.45725 19.6654 6.65771 20.7282V21.5011H4.52949L3.12376 25.621H25.8851L24.4794 21.5011H22.2838V20.7883C23.5154 19.7157 24.5146 18.3917 25.1989 16.9001ZM11.381 4.22781H17.6278V5.76674H11.381V4.22781ZM21.5663 16.1075L19.4109 18.2192H9.54766L7.37516 16.0907V9.19458L9.54464 7.06906H19.4441L21.5653 9.14726V16.1075H21.5663Z" fill="#CC6237"/>
</svg>
